<svg xmlns="http://www.w3.org/2000/svg" width="1200" height="400" viewBox="0 0 1200 400" role="img" aria-label="Memory Cards">
  <defs>
    <linearGradient id="bg" x1="0" y1="0" x2="1" y2="1">
      <stop offset="0%" stop-color="#0a0f1e"/>
      <stop offset="55%" stop-color="#5ee7ff" stop-opacity=".28"/>
      <stop offset="100%" stop-color="#7aa2ff" stop-opacity=".42"/>
    </linearGradient>
    <radialGradient id="glow" cx="50%" cy="42%" r="55%">
      <stop offset="0%" stop-color="#5ee7ff" stop-opacity=".55"/>
      <stop offset="100%" stop-color="#5ee7ff" stop-opacity="0"/>
    </radialGradient>
    <filter id="soft" x="-30%" y="-30%" width="160%" height="160%">
      <feGaussianBlur stdDeviation="10"/>
    </filter>
  </defs>
  <rect width="1200" height="400" fill="#0a0f1e"/>
  <rect width="1200" height="400" fill="url(#bg)"/>
  <g opacity=".18"><path d="M50 0V400" stroke="#ffffff" stroke-width="1"/><path d="M100 0V400" stroke="#ffffff" stroke-width="1"/><path d="M150 0V400" stroke="#ffffff" stroke-width="1"/><path d="M200 0V400" stroke="#ffffff" stroke-width="1"/><path d="M250 0V400" stroke="#ffffff" stroke-width="1"/><path d="M300 0V400" stroke="#ffffff" stroke-width="1"/><path d="M350 0V400" stroke="#ffffff" stroke-width="1"/><path d="M400 0V400" stroke="#ffffff" stroke-width="1"/><path d="M450 0V400" stroke="#ffffff" stroke-width="1"/><path d="M500 0V400" stroke="#ffffff" stroke-width="1"/><path d="M550 0V400" stroke="#ffffff" stroke-width="1"/><path d="M600 0V400" stroke="#ffffff" stroke-width="1"/><path d="M650 0V400" stroke="#ffffff" stroke-width="1"/><path d="M700 0V400" stroke="#ffffff" stroke-width="1"/><path d="M750 0V400" stroke="#ffffff" stroke-width="1"/><path d="M800 0V400" stroke="#ffffff" stroke-width="1"/><path d="M850 0V400" stroke="#ffffff" stroke-width="1"/><path d="M900 0V400" stroke="#ffffff" stroke-width="1"/><path d="M950 0V400" stroke="#ffffff" stroke-width="1"/><path d="M1000 0V400" stroke="#ffffff" stroke-width="1"/><path d="M1050 0V400" stroke="#ffffff" stroke-width="1"/><path d="M1100 0V400" stroke="#ffffff" stroke-width="1"/><path d="M1150 0V400" stroke="#ffffff" stroke-width="1"/><path d="M0 50H1200" stroke="#ffffff" stroke-width="1"/><path d="M0 100H1200" stroke="#ffffff" stroke-width="1"/><path d="M0 150H1200" stroke="#ffffff" stroke-width="1"/><path d="M0 200H1200" stroke="#ffffff" stroke-width="1"/><path d="M0 250H1200" stroke="#ffffff" stroke-width="1"/><path d="M0 300H1200" stroke="#ffffff" stroke-width="1"/><path d="M0 350H1200" stroke="#ffffff" stroke-width="1"/></g>
  <rect width="1200" height="400" fill="url(#glow)"/>
  <g opacity=".55" filter="url(#soft)">
    <circle cx="600" cy="176" r="120" fill="#7aa2ff" opacity=".35"/>
  </g>
  <text x="600" y="208" font-size="168" text-anchor="middle" dominant-baseline="middle">🃏</text>
  <g font-family="system-ui, -apple-system, 'Segoe UI', Roboto, sans-serif">
    <text x="600" y="336" font-size="52" font-weight="800"
      fill="#ffffff" text-anchor="middle" letter-spacing="2">Memory Cards</text>
    <text x="600" y="378" font-size="30"
      fill="#ffffff" opacity=".72" text-anchor="middle">بطاقات الذاكرة</text>
  </g>
  <g opacity=".5" font-family="system-ui, sans-serif" font-size="18" font-weight="800" fill="#ffffff">
    <text x="1186" y="40" text-anchor="end" letter-spacing="3">VOLT</text>
  </g>
</svg>
